/* XPM */
static char * res2_xpm[] = {
"32 32 1024 2",
"  	c None",
". 	c #F9B516",
"+ 	c #FAB819",
"@ 	c #F9B919",
"# 	c #F7BB1B",
"$ 	c #FAC018",
"% 	c #F9CF1C",
"& 	c #E6C04E",
"* 	c #DAB066",
"= 	c #FDDC70",
"- 	c #FBDA84",
"; 	c #FBD4AC",
"> 	c #EBC7B9",
", 	c #B7A3AA",
"' 	c #F3E2B2",
") 	c #FCE9A3",
"! 	c #FAED9B",
"~ 	c #E6E0B8",
"{ 	c #928A88",
"] 	c #FAE476",
"^ 	c #FDE579",
"/ 	c #F8E67A",
"( 	c #F5DF93",
"_ 	c #BFC0CF",
": 	c #405E93",
"< 	c #3E5C9C",
"[ 	c #3F4A87",
"} 	c #2F295F",
"| 	c #291148",
"1 	c #304382",
"2 	c #1F2059",
"3 	c #1C1B40",
"4 	c #604E6F",
"5 	c #F8B415",
"6 	c #FAB818",
"7 	c #F6BA18",
"8 	c #F7BB17",
"9 	c #F8C219",
"0 	c #F2CD50",
"a 	c #D7A862",
"b 	c #FBD949",
"c 	c #FDDA66",
"d 	c #FBD786",
"e 	c #FBD59A",
"f 	c #CBA696",
"g 	c #E7D0AE",
"h 	c #F8E3A1",
"i 	c #FAE893",
"j 	c #F5E6A6",
"k 	c #99929F",
"l 	c #EED781",
"m 	c #FCE471",
"n 	c #FDE379",
"o 	c #F8DE8A",
"p 	c #E8D7C7",
"q 	c #7079A7",
"r 	c #566CA7",
"s 	c #5B5F9E",
"t 	c #5F4E8B",
"u 	c #4C2E72",
"v 	c #3E397E",
"w 	c #3D377A",
"x 	c #331A47",
"y 	c #39254D",
"z 	c #815774",
"A 	c #F7B314",
"B 	c #F9B717",
"C 	c #F4BD1A",
"D 	c #D8AD41",
"E 	c #E2AF39",
"F 	c #CB994A",
"G 	c #F5CF30",
"H 	c #FDD83F",
"I 	c #FFD75E",
"J 	c #FCD875",
"K 	c #E6BC86",
"L 	c #DEBA93",
"M 	c #F9DD95",
"N 	c #FDE38C",
"O 	c #FBE791",
"P 	c #BAACA2",
"Q 	c #D1C17C",
"R 	c #F9E36E",
"S 	c #FBDF6B",
"T 	c #FBDD80",
"U 	c #EFDBC2",
"V 	c #9B8EB6",
"W 	c #7F81B3",
"X 	c #606BA7",
"Y 	c #6E61A1",
"Z 	c #76538D",
"` 	c #5C4787",
" .	c #4B488B",
"..	c #6A1F57",
"+.	c #4B214C",
"@.	c #4E2D52",
"#.	c #7D6891",
"$.	c #F5B410",
"%.	c #FAB515",
"&.	c #DAB75B",
"*.	c #9D869A",
"=.	c #A37C9C",
"-.	c #CBA559",
";.	c #FCD11E",
">.	c #F8D52F",
",.	c #F8D93F",
"'.	c #F2CD78",
").	c #CEA582",
"!.	c #F8DD78",
"~.	c #FBDF7C",
"{.	c #FEE37B",
"].	c #DEC795",
"^.	c #B2A47C",
"/.	c #FCE064",
"(.	c #FEE064",
"_.	c #FED96D",
":.	c #F7DB9D",
"<.	c #B1A3BF",
"[.	c #C09CAE",
"}.	c #938AAD",
"|.	c #7075A9",
"1.	c #876A9D",
"2.	c #865E98",
"3.	c #535993",
"4.	c #642662",
"5.	c #7D2657",
"6.	c #682D57",
"7.	c #60436B",
"8.	c #826C8F",
"9.	c #F8B116",
"0.	c #EEC23C",
"a.	c #A68983",
"b.	c #AFA7C3",
"c.	c #AEA7C5",
"d.	c #AC8676",
"e.	c #F9CD1A",
"f.	c #F8D22A",
"g.	c #FAD143",
"h.	c #C49F83",
"i.	c #F1D25E",
"j.	c #FCDE59",
"k.	c #FCE164",
"l.	c #F8DF7D",
"m.	c #A49580",
"n.	c #F8DE64",
"o.	c #FEDC58",
"p.	c #FCDC5D",
"q.	c #FBDB7A",
"r.	c #BBB5C1",
"s.	c #C6A2A0",
"t.	c #D8AFA5",
"u.	c #9C8EAE",
"v.	c #8B7AA9",
"w.	c #A572A5",
"x.	c #7A72A6",
"y.	c #663977",
"z.	c #7D2664",
"A.	c #8D2D5D",
"B.	c #844176",
"C.	c #635281",
"D.	c #AD6A85",
"E.	c #F0B71F",
"F.	c #B19787",
"G.	c #9B96B8",
"H.	c #947B98",
"I.	c #B29FA4",
"J.	c #E3B736",
"K.	c #E1B440",
"L.	c #946E6B",
"M.	c #907560",
"N.	c #D8B544",
"O.	c #FADB3B",
"P.	c #FDDF42",
"Q.	c #FCE454",
"R.	c #B39E7A",
"S.	c #E8D261",
"T.	c #FDDE52",
"U.	c #FCDB46",
"V.	c #F8D85C",
"W.	c #CFBEB2",
"X.	c #B89A88",
"Y.	c #F7C693",
"Z.	c #DFAAAC",
"`.	c #B08FAF",
" +	c #A486AD",
".+	c #9A87B3",
"++	c #78508C",
"@+	c #8B4377",
"#+	c #7F2F5F",
"$+	c #903D6E",
"%+	c #765B87",
"&+	c #8F4760",
"*+	c #B76E82",
"=+	c #BEA16F",
"-+	c #9598C3",
";+	c #A3A2BC",
">+	c #A69BA0",
",+	c #E7B525",
"'+	c #F8C415",
")+	c #B8A596",
"!+	c #9385B2",
"~+	c #816797",
"{+	c #BFA251",
"]+	c #FAD522",
"^+	c #FBDA31",
"/+	c #D3BB68",
"(+	c #CAB85A",
"_+	c #FADD3C",
":+	c #F8DC37",
"<+	c #F9D638",
"[+	c #E5D1A2",
"}+	c #AC9285",
"|+	c #F7D06A",
"1+	c #FACA8C",
"2+	c #E0B0A8",
"3+	c #C498B4",
"4+	c #B295B7",
"5+	c #7E729F",
"6+	c #B06499",
"7+	c #895286",
"8+	c #7E4378",
"9+	c #81699E",
"0+	c #98486A",
"a+	c #A14E63",
"b+	c #BC7288",
"c+	c #6F709D",
"d+	c #969DC8",
"e+	c #9B9DBE",
"f+	c #D7AA33",
"g+	c #F3C318",
"h+	c #DDB342",
"i+	c #7B6278",
"j+	c #9D8CB4",
"k+	c #9995BF",
"l+	c #C49540",
"m+	c #C99D3B",
"n+	c #C5A459",
"o+	c #B5964B",
"p+	c #F7DA33",
"q+	c #FBD92B",
"r+	c #F9D830",
"s+	c #EFD67B",
"t+	c #A79690",
"u+	c #F1CF51",
"v+	c #FBD369",
"w+	c #FACD82",
"x+	c #E1AFA2",
"y+	c #CCA9A9",
"z+	c #928BB9",
"A+	c #BC7BA3",
"B+	c #BA82B0",
"C+	c #6576AD",
"D+	c #546AAB",
"E+	c #9C5584",
"F+	c #B04B73",
"G+	c #B0566B",
"H+	c #B387AA",
"I+	c #6F74A7",
"J+	c #7C7FA8",
"K+	c #C4A04D",
"L+	c #FBBA15",
"M+	c #F2BE26",
"N+	c #928183",
"O+	c #9396C3",
"P+	c #88708F",
"Q+	c #C4A651",
"R+	c #D2B25B",
"S+	c #7B6289",
"T+	c #78648E",
"U+	c #AB965A",
"V+	c #F9DB27",
"W+	c #FBD72C",
"X+	c #F6D950",
"Y+	c #ACA3A5",
"Z+	c #E9C553",
"`+	c #FDCF4D",
" @	c #FBD46C",
".@	c #F6C68A",
"+@	c #E7B1A1",
"@@	c #B29DB3",
"#@	c #A386AF",
"$@	c #D19DB6",
"%@	c #8182B3",
"&@	c #6A91C4",
"*@	c #6980B8",
"=@	c #AA5884",
"-@	c #BD586F",
";@	c #9E6A84",
">@	c #A9879F",
",@	c #9EB0C9",
"'@	c #8C7377",
")@	c #F0B21A",
"!@	c #F6BE17",
"~@	c #B1987E",
"{@	c #8F95BE",
"]@	c #9B98B8",
"^@	c #A8987D",
"/@	c #F2C81B",
"(@	c #977768",
"_@	c #9F9EC5",
":@	c #928AB7",
"<@	c #8E6D68",
"[@	c #F1D335",
"}@	c #EFCF3D",
"|@	c #B8A278",
"1@	c #D7B867",
"2@	c #FDCE44",
"3@	c #FBD050",
"4@	c #F7CF6B",
"5@	c #F3C088",
"6@	c #D3B0B2",
"7@	c #9181A4",
"8@	c #C4A7BD",
"9@	c #7485B6",
"0@	c #5479AF",
"a@	c #6E73A6",
"b@	c #A8748C",
"c@	c #CC6A80",
"d@	c #B87689",
"e@	c #9D789C",
"f@	c #CB828B",
"g@	c #B9A287",
"h@	c #D8A734",
"i@	c #F2B61B",
"j@	c #A08047",
"k@	c #66638D",
"l@	c #8C94BD",
"m@	c #9999AA",
"n@	c #E3B729",
"o@	c #C29F57",
"p@	c #8683AD",
"q@	c #7E6284",
"r@	c #A3999D",
"s@	c #D0B15E",
"t@	c #78575E",
"u@	c #715D78",
"v@	c #8E794B",
"w@	c #FBCF48",
"x@	c #FBCA4F",
"y@	c #F8C95F",
"z@	c #F4C678",
"A@	c #E6B9A3",
"B@	c #9180A7",
"C@	c #D5ACAC",
"D@	c #8C93C4",
"E@	c #7BA1D1",
"F@	c #807FAB",
"G@	c #C07F8F",
"H@	c #AF758A",
"I@	c #716496",
"J@	c #A191AD",
"K@	c #C56B77",
"L@	c #C97E86",
"M@	c #F2AD11",
"N@	c #F7AE14",
"O@	c #D3B350",
"P@	c #888FBB",
"Q@	c #7A769F",
"R@	c #666897",
"S@	c #C3A939",
"T@	c #E1BA44",
"U@	c #8886A2",
"V@	c #9A96B3",
"W@	c #9797B0",
"X@	c #E1C13B",
"Y@	c #BE9F61",
"Z@	c #9392BB",
"`@	c #826B99",
" #	c #7A657A",
".#	c #F0C955",
"+#	c #F8C462",
"@#	c #F2BE6A",
"##	c #EABC8B",
"$#	c #A68FAC",
"%#	c #CCA6A4",
"&#	c #CAB6C4",
"*#	c #9BA3C6",
"=#	c #958BB2",
"-#	c #C08BA1",
";#	c #CE8E94",
">#	c #6B779E",
",#	c #6289B6",
"'#	c #7D7297",
")#	c #CD757D",
"!#	c #C87F87",
"~#	c #F0A815",
"{#	c #F7A918",
"]#	c #EAB743",
"^#	c #A2AFD2",
"/#	c #A2B2DB",
"(#	c #7D7B7F",
"_#	c #D7B02C",
":#	c #7C6F73",
"<#	c #8A91C3",
"[#	c #96A1CD",
"}#	c #C8AF61",
"|#	c #D7B34E",
"1#	c #786782",
"2#	c #826386",
"3#	c #9C9FC7",
"4#	c #A58883",
"5#	c #F5CA5E",
"6#	c #EFC56C",
"7#	c #E4B671",
"8#	c #B59A96",
"9#	c #B998AA",
"0#	c #D3B0BA",
"a#	c #B0A4C2",
"b#	c #D3A5AC",
"c#	c #DF9C9E",
"d#	c #D49196",
"e#	c #967D9D",
"f#	c #657EB0",
"g#	c #6D7CAF",
"h#	c #C38589",
"i#	c #D48179",
"j#	c #CF8B92",
"k#	c #F2A810",
"l#	c #F3AB16",
"m#	c #C4A057",
"n#	c #B59C59",
"o#	c #CDB261",
"p#	c #DBB750",
"q#	c #868197",
"r#	c #6B6DA1",
"s#	c #797AB1",
"t#	c #A69C87",
"u#	c #E3BF49",
"v#	c #867C91",
"w#	c #8C91AF",
"x#	c #8886AB",
"y#	c #BD966C",
"z#	c #F5CC59",
"A#	c #F2C86D",
"B#	c #8F7187",
"C#	c #71618B",
"D#	c #716883",
"E#	c #C7A8BD",
"F#	c #B5A2C4",
"G#	c #CFACB0",
"H#	c #D8A399",
"I#	c #E09593",
"J#	c #A993AB",
"K#	c #5676A9",
"L#	c #5A6AA0",
"M#	c #B8768E",
"N#	c #E28676",
"O#	c #E08977",
"P#	c #BAA8B5",
"Q#	c #F4A611",
"R#	c #D6A033",
"S#	c #977852",
"T#	c #F5B118",
"U#	c #F2BF14",
"V#	c #EEC32A",
"W#	c #A9AECD",
"X#	c #A3B1CE",
"Y#	c #7975A0",
"Z#	c #BB9D43",
"`#	c #7F7574",
" $	c #8596C4",
".$	c #9A9FC9",
"+$	c #B5A183",
"@$	c #FACF53",
"#$	c #F3CA64",
"$$	c #CFAE83",
"%$	c #9291BB",
"&$	c #7A6B98",
"*$	c #6D6AA1",
"=$	c #B8A2C2",
"-$	c #D7ADA8",
";$	c #D5AE9E",
">$	c #D49F98",
",$	c #CF949B",
"'$	c #6F84B1",
")$	c #6B91C2",
"!$	c #8F6F96",
"~$	c #CA7083",
"{$	c #C27F87",
"]$	c #BD9FAA",
"^$	c #CEAFAD",
"/$	c #E4A42A",
"($	c #8B6C55",
"_$	c #E2A019",
":$	c #F3AB19",
"<$	c #F3B311",
"[$	c #F2BA2F",
"}$	c #AAA49F",
"|$	c #B8B6A4",
"1$	c #AEA4A2",
"2$	c #787399",
"3$	c #69639B",
"4$	c #797EB5",
"5$	c #A4A3A3",
"6$	c #F0CE65",
"7$	c #F7CE66",
"8$	c #EAC474",
"9$	c #867891",
"0$	c #765B80",
"a$	c #989CC4",
"b$	c #8F749B",
"c$	c #D6A9A4",
"d$	c #D6ACA0",
"e$	c #D1A6A5",
"f$	c #D29C95",
"g$	c #C9A4B4",
"h$	c #969BC4",
"i$	c #826EA3",
"j$	c #B47098",
"k$	c #A97EA5",
"l$	c #587EB0",
"m$	c #5E73A5",
"n$	c #DD948F",
"o$	c #957460",
"p$	c #C48F23",
"q$	c #ECA60E",
"r$	c #F0A712",
"s$	c #F0AE16",
"t$	c #AF8971",
"u$	c #D0A638",
"v$	c #F2C71F",
"w$	c #D9B95D",
"x$	c #A2ABD0",
"y$	c #9EA7C7",
"z$	c #7E719F",
"A$	c #E6C05D",
"B$	c #F4C654",
"C$	c #F2C25A",
"D$	c #978F90",
"E$	c #8E8FAE",
"F$	c #8F8CBE",
"G$	c #91738F",
"H$	c #D3A49B",
"I$	c #DEA68C",
"J$	c #D9A69E",
"K$	c #CDA2A3",
"L$	c #CAA8B7",
"M$	c #B5A5C0",
"N$	c #AE7CA0",
"O$	c #AA6891",
"P$	c #AB80A3",
"Q$	c #6270A2",
"R$	c #6D95C6",
"S$	c #8188AF",
"T$	c #CB8891",
"U$	c #7E6E62",
"V$	c #CC9022",
"W$	c #C5931F",
"X$	c #B77211",
"Y$	c #B98456",
"Z$	c #9D7B53",
"`$	c #E5A126",
" %	c #DDA42C",
".%	c #DAB151",
"+%	c #ACA9BF",
"@%	c #AAAEC9",
"#%	c #B7A08A",
"$%	c #E3AB4A",
"%%	c #DFA954",
"&%	c #A68B74",
"*%	c #8692CA",
"=%	c #91A0C0",
"-%	c #968BAA",
";%	c #BC8F85",
">%	c #CE9677",
",%	c #CE9980",
"'%	c #C89B85",
")%	c #C6A8A9",
"!%	c #C8CCDC",
"~%	c #C295A3",
"{%	c #B57A9F",
"]%	c #9F7BAB",
"^%	c #646E8E",
"/%	c #5574A4",
"(%	c #757DAD",
"_%	c #C687AC",
":%	c #C77D94",
"<%	c #B08F95",
"[%	c #B49776",
"}%	c #9F8554",
"|%	c #73565A",
"1%	c #726983",
"2%	c #BC987D",
"3%	c #B48851",
"4%	c #9A8069",
"5%	c #776689",
"6%	c #AE8857",
"7%	c #CDA476",
"8%	c #CAA982",
"9%	c #AC938E",
"0%	c #8F8AA6",
"a%	c #645F91",
"b%	c #7A82AD",
"c%	c #8592BE",
"d%	c #9786AC",
"e%	c #BEA194",
"f%	c #B69B97",
"g%	c #9C8397",
"h%	c #A39AAD",
"i%	c #CAD0EA",
"j%	c #C8A7B7",
"k%	c #CB969D",
"l%	c #AF80A1",
"m%	c #656C9F",
"n%	c #7097C9",
"o%	c #5E72A3",
"p%	c #ACA8C7",
"q%	c #AD8DAD",
"r%	c #B57A9D",
"s%	c #BF8329",
"t%	c #C78C2E",
"u%	c #BA7E32",
"v%	c #6B5F7E",
"w%	c #C28F2E",
"x%	c #DC9C26",
"y%	c #E6A526",
"z%	c #A67C7D",
"A%	c #C79F84",
"B%	c #E9BB60",
"C%	c #ECBE76",
"D%	c #E8BB81",
"E%	c #D1A891",
"F%	c #96A6C6",
"G%	c #9BA1CF",
"H%	c #6B7AB5",
"I%	c #7B76A5",
"J%	c #B492A8",
"K%	c #BFA09E",
"L%	c #D3ADAC",
"M%	c #ADA2B6",
"N%	c #CED9EC",
"O%	c #C2B6C7",
"P%	c #CDA4A4",
"Q%	c #C2979B",
"R%	c #A285AB",
"S%	c #8194C2",
"T%	c #617EAD",
"U%	c #8789B7",
"V%	c #A59FC1",
"W%	c #9185B8",
"X%	c #AEABCD",
"Y%	c #B87916",
"Z%	c #C17E12",
"`%	c #9B7365",
" &	c #886D5B",
".&	c #E08A0A",
"+&	c #E29009",
"@&	c #CB9242",
"#&	c #A18064",
"$&	c #E0AD73",
"%&	c #F6C750",
"&&	c #FAC761",
"*&	c #F6C36D",
"=&	c #CDA28B",
"-&	c #AAAAC0",
";&	c #A6B3CE",
">&	c #969BB9",
",&	c #AF95B1",
"'&	c #AE8FA4",
")&	c #B191A0",
"!&	c #C9B1B6",
"~&	c #D5DBEB",
"{&	c #ACB9CF",
"]&	c #BCA6AC",
"^&	c #C6A5A3",
"/&	c #BD97A6",
"(&	c #A69EBB",
"_&	c #8688B6",
":&	c #8A8EB6",
"<&	c #9D91BA",
"[&	c #8D8CBD",
"}&	c #5670A6",
"|&	c #849AC4",
"1&	c #AB7416",
"2&	c #A9733A",
"3&	c #74605B",
"4&	c #8E6B4F",
"5&	c #D08912",
"6&	c #D88F17",
"7&	c #977A6C",
"8&	c #E1A43D",
"9&	c #D19C6E",
"0&	c #F1BE5D",
"a&	c #F6C258",
"b&	c #F6C16B",
"c&	c #A08D96",
"d&	c #BBA197",
"e&	c #E4B892",
"f&	c #DBB7A1",
"g&	c #C0A4AA",
"h&	c #8E7CA0",
"i&	c #998BAD",
"j&	c #BEC0D5",
"k&	c #C1C9E2",
"l&	c #9091B3",
"m&	c #AE9DA3",
"n&	c #BFA4A4",
"o&	c #B3A7BD",
"p&	c #8091BB",
"q&	c #807FB2",
"r&	c #8B8CB4",
"s&	c #A395B8",
"t&	c #7282B6",
"u&	c #7DA9D5",
"v&	c #7D8FBC",
"w&	c #A66D30",
"x&	c #6B6070",
"y&	c #AB6F19",
"z&	c #946544",
"A&	c #CE811E",
"B&	c #AD8160",
"C&	c #AF8741",
"D&	c #E5A12F",
"E&	c #CA9556",
"F&	c #DEB174",
"G&	c #EEB95C",
"H&	c #C3A182",
"I&	c #907E85",
"J&	c #CBA489",
"K&	c #DEB48D",
"L&	c #D3B09C",
"M&	c #B5A0A7",
"N&	c #8D83A8",
"O&	c #8488B7",
"P&	c #B0B1CF",
"Q&	c #BCB5B5",
"R&	c #9E9FB1",
"S&	c #9089A0",
"T&	c #B7ACB6",
"U&	c #9BABCE",
"V&	c #7880B2",
"W&	c #7C7FB4",
"X&	c #989DCA",
"Y&	c #6570A5",
"Z&	c #5E7FB7",
"`&	c #5E6CA0",
" *	c #7F6D8F",
".*	c #6E5C69",
"+*	c #8A602E",
"@*	c #B36E0A",
"#*	c #946530",
"$*	c #B17A3B",
"%*	c #8A716B",
"&*	c #D58B0F",
"**	c #D89A31",
"=*	c #D19A50",
"-*	c #C39E82",
";*	c #D2A965",
">*	c #887789",
",*	c #DAAB7D",
"'*	c #B08C8D",
")*	c #D3AE98",
"!*	c #C2A5A1",
"~*	c #AA98A6",
"{*	c #8985AE",
"]*	c #848FBB",
"^*	c #AAA1BA",
"/*	c #B9B0AF",
"(*	c #ABA5B3",
"_*	c #8C8FB1",
":*	c #BCCBE0",
"<*	c #929BBB",
"[*	c #747AAF",
"}*	c #717FB0",
"|*	c #5375A6",
"1*	c #689AC6",
"2*	c #5876B3",
"3*	c #47598C",
"4*	c #796279",
"5*	c #605361",
"6*	c #A06217",
"7*	c #AD670A",
"8*	c #9D641D",
"9*	c #5F5270",
"0*	c #B07924",
"a*	c #D18612",
"b*	c #D29729",
"c*	c #DA9C44",
"d*	c #A68075",
"e*	c #897686",
"f*	c #CBA57A",
"g*	c #DAAC81",
"h*	c #A38A9A",
"i*	c #BFA59A",
"j*	c #B19C9E",
"k*	c #9F90A2",
"l*	c #8787B0",
"m*	c #7883B7",
"n*	c #9D91B5",
"o*	c #ABAEAE",
"p*	c #A9B2BB",
"q*	c #CFDCEA",
"r*	c #95A6BF",
"s*	c #8B97AF",
"t*	c #6A78AA",
"u*	c #647CB0",
"v*	c #7196C5",
"w*	c #6289BA",
"x*	c #70A0C9",
"y*	c #4982B4",
"z*	c #6E7AA1",
"A*	c #815931",
"B*	c #99611F",
"C*	c #A3650E",
"D*	c #9A6338",
"E*	c #6E5D62",
"F*	c #C17807",
"G*	c #C7800D",
"H*	c #CF8D25",
"I*	c #D29A45",
"J*	c #8B798A",
"K*	c #A88C86",
"L*	c #CFA57C",
"M*	c #CDA284",
"N*	c #A58D96",
"O*	c #A58F92",
"P*	c #A99598",
"Q*	c #A28D9D",
"R*	c #958BA9",
"S*	c #7A81AE",
"T*	c #8482AC",
"U*	c #A6A4B4",
"V*	c #DAE2EA",
"W*	c #C9CFCE",
"X*	c #99A3B4",
"Y*	c #8395B4",
"Z*	c #6C79AA",
"`*	c #7C8CC2",
" =	c #8795C3",
".=	c #90ACBC",
"+=	c #64A9B4",
"@=	c #4E90BF",
"#=	c #7B9DD1",
"$=	c #7C5435",
"%=	c #8D5D28",
"&=	c #9B6320",
"*=	c #6B5869",
"==	c #6A5859",
"-=	c #BD730E",
";=	c #C07A0B",
">=	c #C4881F",
",=	c #AC8A52",
"'=	c #7A7294",
")=	c #A98C81",
"!=	c #CA9D7D",
"~=	c #C2A187",
"{=	c #AC9693",
"]=	c #928294",
"^=	c #AB9793",
"/=	c #BA9E9A",
"(=	c #BFABA9",
"_=	c #B7ABB0",
":=	c #8989AC",
"<=	c #C6C8DF",
"[=	c #E1E0D5",
"}=	c #D7CDA7",
"|=	c #C8C1B5",
"1=	c #8091B5",
"2=	c #768BBA",
"3=	c #6479B1",
"4=	c #8393BF",
"5=	c #98B2B5",
"6=	c #6E9E8C",
"7=	c #3E7083",
"8=	c #7596B7",
"9=	c #755037",
"0=	c #8A582D",
"a=	c #785A53",
"b=	c #7B5B3C",
"c=	c #78544F",
"d=	c #A46B14",
"e=	c #B9740F",
"f=	c #B5822B",
"g=	c #847984",
"h=	c #B2916E",
"i=	c #BF9A7A",
"j=	c #BC9B87",
"k=	c #B0998F",
"l=	c #8C7C94",
"m=	c #C2A88E",
"n=	c #D0AE93",
"o=	c #D7B891",
"p=	c #E4C994",
"q=	c #B0A9BA",
"r=	c #B3BFD2",
"s=	c #CAB798",
"t=	c #E5D289",
"u=	c #E1CDAD",
"v=	c #8C98C6",
"w=	c #6180B3",
"x=	c #6793C7",
"y=	c #85A7D1",
"z=	c #85B1C0",
"A=	c #64A899",
"B=	c #3E6565",
"C=	c #64707F",
"D=	c #6D4B3A",
"E=	c #795235",
"F=	c #5A4F6A",
"G=	c #945B18",
"H=	c #8B5D4A",
"I=	c #825720",
"J=	c #AF7111",
"K=	c #88716A",
"L=	c #A28059",
"M=	c #BB915D",
"N=	c #7D6E88",
"O=	c #B49577",
"P=	c #B49582",
"Q=	c #B5978C",
"R=	c #958597",
"S=	c #CDAC8E",
"T=	c #D6AF93",
"U=	c #E6C38B",
"V=	c #F1D77F",
"W=	c #BFB6BD",
"X=	c #A19EB2",
"Y=	c #AA9B8F",
"Z=	c #D8C788",
"`=	c #AEB6BB",
" -	c #8E96A9",
".-	c #627CAA",
"+-	c #68A8C1",
"@-	c #85BFCC",
"#-	c #81C1D4",
"$-	c #5CAAC4",
"%-	c #457E86",
"&-	c #647D78",
"*-	c #654840",
"=-	c #5C4D6A",
"--	c #684F41",
";-	c #8B5816",
">-	c #915E2B",
",-	c #704B38",
"'-	c #94683F",
")-	c #807065",
"!-	c #B5813F",
"~-	c #BB8D5C",
"{-	c #7D6C79",
"]-	c #A2877F",
"^-	c #AC8E81",
"/-	c #B69A8C",
"(-	c #9A8693",
"_-	c #C6A893",
":-	c #D5B38F",
"<-	c #E5C98A",
"[-	c #F1DB8E",
"}-	c #D2C3C7",
"|-	c #B8A7AC",
"1-	c #A59496",
"2-	c #9FA7B2",
"3-	c #C5BEB4",
"4-	c #CFBFA5",
"5-	c #6785A2",
"6-	c #66B0AC",
"7-	c #7DBFB0",
"8-	c #86C3C3",
"9-	c #6BB2D8",
"0-	c #4A86BB",
"a-	c #6B879A",
"b-	c #534552",
"c-	c #4B4A6A",
"d-	c #724C2D",
"e-	c #82511C",
"f-	c #905D1D",
"g-	c #574657",
"h-	c #7F6D79",
"i-	c #A17034",
"j-	c #A97E3F",
"k-	c #AE875C",
"l-	c #8E7B6E",
"m-	c #88757E",
"n-	c #AA9384",
"o-	c #B89E90",
"p-	c #AA9796",
"q-	c #AF998E",
"r-	c #D1B992",
"s-	c #E1CE9C",
"t-	c #F1E2AC",
"u-	c #DCCCC8",
"v-	c #D0C0A5",
"w-	c #8A8AAB",
"x-	c #9FA6C2",
"y-	c #D3BD9D",
"z-	c #D7CBAD",
"A-	c #7AA4A8",
"B-	c #6EB9A3",
"C-	c #7DBD93",
"D-	c #7ABBA4",
"E-	c #73C1CC",
"F-	c #61A7D4",
"G-	c #728EB7",
"H-	c #666989",
"I-	c #72686E",
"J-	c #836A52",
"K-	c #946E46",
"L-	c #9E723E",
"M-	c #88808E",
"N-	c #9A7F5E",
"O-	c #B08A50",
"P-	c #B49368",
"Q-	c #B59A7A",
"R-	c #AB9B8E",
"S-	c #8E818C",
"T-	c #B7ABA0",
"U-	c #C5B4A7",
"V-	c #C6B5AF",
"W-	c #ADA1A5",
"X-	c #DCC8B8",
"Y-	c #E3DCC7",
"Z-	c #F0E9CA",
"`-	c #E6E2C9",
" ;	c #D9CFCA",
".;	c #A6ABC6",
"+;	c #D9CFB8",
"@;	c #C8C2B9",
"#;	c #DAD3C1",
"$;	c #9BBDC1",
"%;	c #87C5C0",
"&;	c #97C9B3",
"*;	c #88C39D",
"=;	c #7FBDAD",
"-;	c #77B8DD",
";;	c #92B5D6",
". + @ # $ % & * = - ; > , ' ) ! ~ { ] ^ / ( _ : < [ } | 1 2 3 4 ",
"5 6 7 8 9 0 a b c d e f g h i j k l m n o p q r s t u v w x y z ",
"A B C D E F G H I J K L M N O P Q R S T U V W X Y Z `  ...+.@.#.",
"$.%.&.*.=.-.;.>.,.'.).!.~.{.].^./.(._.:.<.[.}.|.1.2.3.4.5.6.7.8.",
"9.0.a.b.c.d.e.f.g.h.i.j.k.l.m.n.o.p.q.r.s.t.u.v.w.x.y.z.A.B.C.D.",
"E.F.G.H.I.J.K.L.M.N.O.P.Q.R.S.T.U.V.W.X.Y.Z.`. +.+++@+#+$+%+&+*+",
"=+-+;+>+,+'+)+!+~+{+]+^+/+(+_+:+<+[+}+|+1+2+3+4+5+6+7+8+9+0+a+b+",
"c+d+e+f+g+h+i+j+k+l+m+n+o+p+q+r+s+t+u+v+w+x+y+z+A+B+C+D+E+F+G+H+",
"I+J+K+L+M+N+O+P+Q+R+S+T+U+V+W+X+Y+Z+`+ @.@+@@@#@$@%@&@*@=@-@;@>@",
",@'@)@!@~@{@]@^@/@(@_@:@<@[@}@|@1@2@3@4@5@6@7@8@9@0@a@b@c@d@e@f@",
"g@h@i@j@k@l@m@n@o@p@q@r@s@t@u@v@w@x@y@z@A@B@C@D@E@F@G@H@I@J@K@L@",
"M@N@O@P@Q@R@S@T@U@V@W@X@Y@Z@`@ #.#+#@###$#%#&#*#=#-#;#>#,#'#)#!#",
"~#{#]#^#/#(#_#:#<#[#}#|#1#2#3#4#5#6#7#8#9#0#a#b#c#d#e#f#g#h#i#j#",
"k#l#m#n#o#p#q#r#s#t#u#v#w#x#y#z#A#B#C#D#E#F#G#H#I#J#K#L#M#N#O#P#",
"Q#R#S#T#U#V#W#X#Y#Z#`# $.$+$@$#$$$%$&$*$=$-$;$>$,$'$)$!$~${$]$^$",
"/$($_$:$<$[$}$|$1$2$3$4$5$6$7$8$9$0$a$b$c$d$e$f$g$h$i$j$k$l$m$n$",
"o$p$q$r$s$t$u$v$w$x$y$z$A$B$C$D$E$F$G$H$I$J$K$L$M$N$O$P$Q$R$S$T$",
"U$V$W$X$Y$Z$`$ %.%+%@%#%$%%%&%*%=%-%;%>%,%'%)%!%~%{%]%^%/%(%_%:%",
"<%[%}%|%1%2%3%4%5%6%7%8%9%0%a%b%c%d%e%f%g%h%i%j%k%l%m%n%o%p%q%r%",
"s%t%u%v%w%x%y%z%A%B%C%D%E%F%G%H%I%J%K%L%M%N%O%P%Q%R%S%T%U%V%W%X%",
"Y%Z%`% &.&+&@&#&$&%&&&*&=&-&;&>&,&'&)&!&~&{&]&^&/&(&_&:&<&[&}&|&",
"1&2&3&4&5&6&7&8&9&0&a&b&c&d&e&f&g&h&i&j&k&l&m&n&o&p&q&r&s&t&u&v&",
"w&x&y&z&A&B&C&D&E&F&G&H&I&J&K&L&M&N&O&P&Q&R&S&T&U&V&W&X&Y&Z&`& *",
".*+*@*#*$*%*&***=*-*;*>*,*'*)*!*~*{*]*^*/*(*_*:*<*[*}*|*1*2*3*4*",
"5*6*7*8*9*0*a*b*c*d*e*f*g*h*i*j*k*l*m*n*o*p*q*r*s*t*u*v*w*x*y*z*",
"A*B*C*D*E*F*G*H*I*J*K*L*M*N*O*P*Q*R*S*T*U*V*W*X*Y*Z*`* =.=+=@=#=",
"$=%=&=*===-=;=>=,='=)=!=~={=]=^=/=(=_=:=<=[=}=|=1=2=3=4=5=6=7=8=",
"9=0=a=b=c=d=e=f=g=h=e*i=j=k=l=m=n=o=p=q=r=s=t=u=v=w=x=y=z=A=B=C=",
"D=E=F=G=H=I=J=K=L=M=N=O=P=Q=R=S=T=U=V=W=X=Y=Z=`= -.-+-@-#-$-%-&-",
"*-=---;->-,-'-)-!-~-{-]-^-/-(-_-:-<-[-}-|-1-2-3-4-5-6-7-8-9-0-a-",
"b-c-d-e-f-g-h-i-j-k-l-m-n-o-p-q-r-s-t-u-v-w-x-y-z-A-B-C-D-E-F-G-",
"H-I-J-K-L-M-N-O-P-Q-R-S-T-U-V-W-X-Y-Z-`- ;.;+;@;#;$;%;&;*;=;-;;;"};
