/* XPM */
static char * electrontubes_xpm[] = {
"48 48 804 2",
"  	c None",
". 	c #655E60",
"+ 	c #968E90",
"@ 	c #605A5C",
"# 	c #C6C1C3",
"$ 	c #F3EAED",
"% 	c #796E72",
"& 	c #675C60",
"* 	c #9F9498",
"= 	c #A2999C",
"- 	c #F0ECED",
"; 	c #D1C6CA",
"> 	c #56474C",
", 	c #514449",
"' 	c #4C4044",
") 	c #766B6F",
"! 	c #DCD4D6",
"~ 	c #9B9295",
"{ 	c #6C6064",
"] 	c #77666C",
"^ 	c #7D6F74",
"/ 	c #4D4044",
"( 	c #63585C",
"_ 	c #958D90",
": 	c #9F9B9C",
"< 	c #CDCACB",
"[ 	c #BFBCBC",
"} 	c #9D999A",
"| 	c #8B8285",
"1 	c #847A7E",
"2 	c #877C7F",
"3 	c #716568",
"4 	c #443237",
"5 	c #534347",
"6 	c #4F4145",
"7 	c #5D5255",
"8 	c #5E5557",
"9 	c #5B5657",
"0 	c #848082",
"a 	c #7C797A",
"b 	c #A8A8A8",
"c 	c #D9D7D8",
"d 	c #BFB8BB",
"e 	c #897F83",
"f 	c #8D8283",
"g 	c #8A8081",
"h 	c #817778",
"i 	c #645C5A",
"j 	c #625857",
"k 	c #4B3C38",
"l 	c #4E3F3D",
"m 	c #625454",
"n 	c #615454",
"o 	c #776B6D",
"p 	c #817677",
"q 	c #7F7476",
"r 	c #7E7376",
"s 	c #726D6D",
"t 	c #C5C0C2",
"u 	c #82787B",
"v 	c #81767A",
"w 	c #85797B",
"x 	c #887B7E",
"y 	c #817777",
"z 	c #776D6C",
"A 	c #625856",
"B 	c #5A4D4A",
"C 	c #423433",
"D 	c #453736",
"E 	c #443635",
"F 	c #4D3F3F",
"G 	c #756767",
"H 	c #7F7171",
"I 	c #827675",
"J 	c #7C7471",
"K 	c #6A6463",
"L 	c #C0BCBD",
"M 	c #F1EEEE",
"N 	c #777173",
"O 	c #867D80",
"P 	c #827678",
"Q 	c #817576",
"R 	c #857979",
"S 	c #746B6A",
"T 	c #736B69",
"U 	c #675D5C",
"V 	c #5D5151",
"W 	c #645858",
"X 	c #625353",
"Y 	c #736564",
"Z 	c #746464",
"` 	c #6D5D5D",
" .	c #635353",
"..	c #5C4D4A",
"+.	c #5B4C49",
"@.	c #7E7171",
"#.	c #857C7D",
"$.	c #B7B3B4",
"%.	c #736D6F",
"&.	c #4E4345",
"*.	c #372B2D",
"=.	c #322525",
"-.	c #3B2F2F",
";.	c #3A2F2E",
">.	c #463C3B",
",.	c #423938",
"'.	c #4D4444",
").	c #42393A",
"!.	c #3D3233",
"~.	c #3B2E2E",
"{.	c #312322",
"].	c #382725",
"^.	c #412E2D",
"/.	c #45322F",
"(.	c #45322E",
"_.	c #543F3C",
":.	c #5B4949",
"<.	c #726566",
"[.	c #B1AAAC",
"}.	c #999495",
"|.	c #6C6365",
"1.	c #2F2526",
"2.	c #1D1112",
"3.	c #221414",
"4.	c #271A1A",
"5.	c #2F2322",
"6.	c #CEC4C2",
"7.	c #3F3536",
"8.	c #2B1F1E",
"9.	c #281818",
"0.	c #2C1B19",
"a.	c #3C2926",
"b.	c #4D3A36",
"c.	c #4F3B37",
"d.	c #4C3732",
"e.	c #4A3735",
"f.	c #988D92",
"g.	c #8B8686",
"h.	c #615859",
"i.	c #251B1B",
"j.	c #201212",
"k.	c #271918",
"l.	c #302321",
"m.	c #FCF1EF",
"n.	c #34292A",
"o.	c #2A1D1D",
"p.	c #2F1E1C",
"q.	c #3D2A2A",
"r.	c #483632",
"s.	c #513E3A",
"t.	c #513D3A",
"u.	c #564444",
"v.	c #6B5E5F",
"w.	c #A49A9E",
"x.	c #857F7F",
"y.	c #706768",
"z.	c #413535",
"A.	c #241616",
"B.	c #2C1C1C",
"C.	c #231414",
"D.	c #281A19",
"E.	c #685D5A",
"F.	c #B1A6A2",
"G.	c #938787",
"H.	c #241818",
"I.	c #1F1111",
"J.	c #3D2D2D",
"K.	c #3C2B2B",
"L.	c #4C3A38",
"M.	c #635250",
"N.	c #706060",
"O.	c #7C7172",
"P.	c #A09B9D",
"Q.	c #918A88",
"R.	c #7B7170",
"S.	c #726666",
"T.	c #443434",
"U.	c #261616",
"V.	c #251614",
"W.	c #271916",
"X.	c #231814",
"Y.	c #312320",
"Z.	c #2B1D1B",
"`.	c #251716",
" +	c #2B1D1C",
".+	c #251717",
"++	c #3E3030",
"@+	c #5A4C4C",
"#+	c #706262",
"$+	c #796D6C",
"%+	c #756A6B",
"&+	c #797174",
"*+	c #A19CA0",
"=+	c #A69D9D",
"-+	c #7B7171",
";+	c #837778",
">+	c #897A7A",
",+	c #7D6E6D",
"'+	c #4B3C3A",
")+	c #20120E",
"!+	c #251714",
"~+	c #261B17",
"{+	c #291B17",
"]+	c #231411",
"^+	c #2A1A19",
"/+	c #1D0F0E",
"(+	c #231515",
"_+	c #514547",
":+	c #6F6365",
"<+	c #796E71",
"[+	c #7C7272",
"}+	c #776D70",
"|+	c #7C7778",
"1+	c #A5A1A5",
"2+	c #C3B9C2",
"3+	c #A49BA1",
"4+	c #887E82",
"5+	c #867C7C",
"6+	c #8E8482",
"7+	c #948A88",
"8+	c #534746",
"9+	c #322626",
"0+	c #271B1C",
"a+	c #302424",
"b+	c #4B3F41",
"c+	c #675B5D",
"d+	c #74686A",
"e+	c #7D7173",
"f+	c #7E7274",
"g+	c #807478",
"h+	c #7D7277",
"i+	c #7F757B",
"j+	c #888085",
"k+	c #B1ABAF",
"l+	c #CAC0CA",
"m+	c #CAC0C9",
"n+	c #B0A5AB",
"o+	c #8F8587",
"p+	c #8F8584",
"q+	c #9B8F8F",
"r+	c #9F9395",
"s+	c #A09496",
"t+	c #AA9EA0",
"u+	c #877B7D",
"v+	c #7B6F71",
"w+	c #837779",
"x+	c #817577",
"y+	c #827679",
"z+	c #84797F",
"A+	c #9E9399",
"B+	c #B7AEB3",
"C+	c #BEB8BC",
"D+	c #CCC1D0",
"E+	c #C4BAC4",
"F+	c #C7BCC4",
"G+	c #B2A7AB",
"H+	c #918788",
"I+	c #908586",
"J+	c #8F8387",
"K+	c #9D9196",
"L+	c #8C7F84",
"M+	c #968A8C",
"N+	c #807476",
"O+	c #897D7F",
"P+	c #95898B",
"Q+	c #B1A6AC",
"R+	c #C3B8BE",
"S+	c #BEB5BA",
"T+	c #B6B0B4",
"U+	c #C9BECF",
"V+	c #C2B7C4",
"W+	c #B5A9B2",
"X+	c #A59AA0",
"Y+	c #BBB0B4",
"Z+	c #AFA3A7",
"`+	c #908388",
" @	c #A699A0",
".@	c #9A8D94",
"+@	c #867A7C",
"@@	c #978B8D",
"#@	c #8E8284",
"$@	c #8A7E80",
"%@	c #9B8F91",
"&@	c #A99D9F",
"*@	c #AFA3A5",
"=@	c #A2979D",
"-@	c #B0A4AA",
";@	c #C3BABF",
">@	c #C0BABE",
",@	c #CCC1D2",
"'@	c #B6ACBA",
")@	c #AFA3AE",
"!@	c #B3A8B0",
"~@	c #9C9196",
"{@	c #9E9296",
"]@	c #897C82",
"^@	c #9B8E95",
"/@	c #918587",
"(@	c #8D8183",
"_@	c #8C8082",
":@	c #9D9193",
"<@	c #8F8385",
"[@	c #AEA3A9",
"}@	c #A89CA3",
"|@	c #B2A9AE",
"1@	c #BCB6BA",
"2@	c #CABFD0",
"3@	c #AAA0AC",
"4@	c #B1A5AF",
"5@	c #ADA2A8",
"6@	c #A1969A",
"7@	c #92878B",
"8@	c #7F7378",
"9@	c #8E8188",
"0@	c #8A7D84",
"a@	c #84787A",
"b@	c #7C7072",
"c@	c #A89DA3",
"d@	c #A99EA4",
"e@	c #A9A0A5",
"f@	c #D0C5D3",
"g@	c #B8AEB8",
"h@	c #9A8F97",
"i@	c #9C9195",
"j@	c #A3999A",
"k@	c #958A8B",
"l@	c #83777B",
"m@	c #7E7276",
"n@	c #776B6E",
"o@	c #786C6E",
"p@	c #706466",
"q@	c #6C6062",
"r@	c #7A6E70",
"s@	c #998D8F",
"t@	c #94898F",
"u@	c #92878D",
"v@	c #BAB1B6",
"w@	c #C2BCC0",
"x@	c #CEC4CE",
"y@	c #AAA0A8",
"z@	c #8E8389",
"A@	c #867C7D",
"B@	c #897F7E",
"C@	c #908584",
"D@	c #928686",
"E@	c #736769",
"F@	c #726668",
"G@	c #716567",
"H@	c #796E74",
"I@	c #83787E",
"J@	c #ACA3A8",
"K@	c #BDB7BB",
"L@	c #D1C7D0",
"M@	c #ABA1AA",
"N@	c #9B9095",
"O@	c #918787",
"P@	c #887E7D",
"Q@	c #7D7270",
"R@	c #746868",
"S@	c #887C7E",
"T@	c #6E6264",
"U@	c #776B6F",
"V@	c #82777D",
"W@	c #8A8186",
"X@	c #ACA4A8",
"Y@	c #D2C7D7",
"Z@	c #C2B8C5",
"`@	c #9C929A",
" #	c #92898E",
".#	c #9A9091",
"+#	c #9C9290",
"@#	c #918785",
"##	c #827676",
"$#	c #8B7F81",
"%#	c #8B8084",
"&#	c #8F858D",
"*#	c #928890",
"=#	c #BDB5BD",
"-#	c #BDB8BC",
";#	c #CEC7D6",
">#	c #C9BECB",
",#	c #A49AA2",
"'#	c #6E656A",
")#	c #6F6566",
"!#	c #7D7372",
"~#	c #8A7F7F",
"{#	c #918585",
"]#	c #978B8B",
"^#	c #988E8F",
"/#	c #958B8C",
"(#	c #928989",
"_#	c #948A8B",
":#	c #8E8485",
"<#	c #857B7C",
"[#	c #756B6C",
"}#	c #5E5357",
"|#	c #7D737B",
"1#	c #958B93",
"2#	c #BCB5BC",
"3#	c #BFBABE",
"4#	c #CCC4D3",
"5#	c #C3BBC7",
"6#	c #AFA9B0",
"7#	c #736A6F",
"8#	c #6B6263",
"9#	c #69605F",
"0#	c #655B5B",
"a#	c #685E5F",
"b#	c #6C6364",
"c#	c #645A5B",
"d#	c #605657",
"e#	c #615758",
"f#	c #5E5455",
"g#	c #463C3D",
"h#	c #6E6465",
"i#	c #695F60",
"j#	c #827879",
"k#	c #968B8F",
"l#	c #8D838B",
"m#	c #948A92",
"n#	c #BEB7BE",
"o#	c #BAB6B9",
"p#	c #CDC5D4",
"q#	c #C4BCC8",
"r#	c #B2ABB2",
"s#	c #6E6566",
"t#	c #72686A",
"u#	c #74696D",
"v#	c #73686C",
"w#	c #695E62",
"x#	c #64595D",
"y#	c #6C6165",
"z#	c #6B6064",
"A#	c #4D4246",
"B#	c #756A6E",
"C#	c #655A5E",
"D#	c #9A8F93",
"E#	c #938991",
"F#	c #B9B2BA",
"G#	c #B9B4B8",
"H#	c #D0C9D8",
"I#	c #C2BBC7",
"J#	c #BCB4BC",
"K#	c #726C70",
"L#	c #706A6C",
"M#	c #736A6D",
"N#	c #746B6E",
"O#	c #746B70",
"P#	c #6F6669",
"Q#	c #645B5E",
"R#	c #70666A",
"S#	c #6E6568",
"T#	c #4B4245",
"U#	c #83797C",
"V#	c #645A5D",
"W#	c #8F8589",
"X#	c #72686C",
"Y#	c #867C84",
"Z#	c #A399A1",
"`#	c #B7B0B7",
" $	c #B6B2B5",
".$	c #CEC8D5",
"+$	c #C3BDC7",
"@$	c #A7A1A8",
"#$	c #746E72",
"$$	c #706A6D",
"%$	c #736B6E",
"&$	c #756B71",
"*$	c #756C73",
"=$	c #766C74",
"-$	c #6D6468",
";$	c #534A4E",
">$	c #776E72",
",$	c #6C6367",
"'$	c #51484D",
")$	c #7C7377",
"!$	c #72696E",
"~$	c #554C50",
"{$	c #4E454A",
"]$	c #7B7179",
"^$	c #B7B0B8",
"/$	c #B5B0B4",
"($	c #CBC6D2",
"_$	c #C5C0CA",
":$	c #9E999F",
"<$	c #787279",
"[$	c #6F696D",
"}$	c #726B70",
"|$	c #746C72",
"1$	c #766D75",
"2$	c #786E77",
"3$	c #6C6469",
"4$	c #473F44",
"5$	c #81797D",
"6$	c #6B6367",
"7$	c #4D454A",
"8$	c #888084",
"9$	c #4C4448",
"0$	c #4B4348",
"a$	c #776D75",
"b$	c #998F97",
"c$	c #B0A9B0",
"d$	c #B4AFB3",
"e$	c #CAC7D2",
"f$	c #C1BEC7",
"g$	c #A9A4AB",
"h$	c #726D73",
"i$	c #726C72",
"j$	c #746D74",
"k$	c #756E76",
"l$	c #776D76",
"m$	c #686267",
"n$	c #524C50",
"o$	c #797377",
"p$	c #655F63",
"q$	c #4E484C",
"r$	c #7B7579",
"s$	c #6E686C",
"t$	c #4D474B",
"u$	c #534C51",
"v$	c #736971",
"w$	c #968C94",
"x$	c #B4ADB4",
"y$	c #B0ABAF",
"z$	c #D3D0DA",
"A$	c #BEBAC1",
"B$	c #ACA6AD",
"C$	c #6B6569",
"D$	c #736D73",
"E$	c #736C74",
"F$	c #756D76",
"G$	c #746D75",
"H$	c #676165",
"I$	c #666064",
"J$	c #4C4348",
"K$	c #867D82",
"L$	c #665D62",
"M$	c #938A8D",
"N$	c #887F84",
"O$	c #978E93",
"P$	c #999096",
"Q$	c #B3ADB2",
"R$	c #B3AEB2",
"S$	c #C8C4C5",
"T$	c #B5AFB1",
"U$	c #948C8F",
"V$	c #857A80",
"W$	c #786D73",
"X$	c #746A6F",
"Y$	c #6C676C",
"Z$	c #706B71",
"`$	c #777278",
" %	c #70666F",
".%	c #655C61",
"+%	c #70656B",
"@%	c #4E4347",
"#%	c #8A7E82",
"$%	c #695D61",
"%%	c #ACA0A2",
"&%	c #968B8D",
"*%	c #857C7F",
"=%	c #82797C",
"-%	c #ADA7A9",
";%	c #B1AEAF",
">%	c #BEB9BD",
",%	c #A49EA2",
"'%	c #9D9499",
")%	c #7C7177",
"!%	c #72676D",
"~%	c #6B6267",
"{%	c #6D676B",
"]%	c #726E71",
"^%	c #716C70",
"/%	c #6E666A",
"(%	c #6A6166",
"_%	c #756C71",
":%	c #6D6165",
"<%	c #5A5054",
"[%	c #7E7375",
"}%	c #6D6163",
"|%	c #796E70",
"1%	c #6B6265",
"2%	c #7E7478",
"3%	c #ACA8A9",
"4%	c #D2CDD3",
"5%	c #A39CA4",
"6%	c #90858E",
"7%	c #978C93",
"8%	c #988D91",
"9%	c #81777B",
"0%	c #6C6466",
"a%	c #686363",
"b%	c #676263",
"c%	c #6A6266",
"d%	c #686065",
"e%	c #756970",
"f%	c #716469",
"g%	c #796D6F",
"h%	c #706366",
"i%	c #A19B9D",
"j%	c #AFACAD",
"k%	c #BAB5BF",
"l%	c #C9C1CB",
"m%	c #B4AAB3",
"n%	c #867B83",
"o%	c #8F8287",
"p%	c #968C8D",
"q%	c #9A9192",
"r%	c #948F8C",
"s%	c #8D8885",
"t%	c #8A7F85",
"u%	c #91878A",
"v%	c #786C70",
"w%	c #A29496",
"x%	c #968889",
"y%	c #948585",
"z%	c #7C7376",
"A%	c #8E8488",
"B%	c #ADA8AA",
"C%	c #AAA6A7",
"D%	c #C8C3CD",
"E%	c #C0B8C4",
"F%	c #C7BDC6",
"G%	c #C9BCC5",
"H%	c #C0B1B8",
"I%	c #8B7F82",
"J%	c #796F6F",
"K%	c #847A79",
"L%	c #8D8382",
"M%	c #8D8386",
"N%	c #94898D",
"O%	c #93878B",
"P%	c #87787B",
"Q%	c #7F7071",
"R%	c #766869",
"S%	c #807172",
"T%	c #7D6F70",
"U%	c #8A8184",
"V%	c #8F8588",
"W%	c #A6A0A2",
"X%	c #C9C7CE",
"Y%	c #C0BAC2",
"Z%	c #C4BAC3",
"`%	c #BFB2BB",
" &	c #A4959A",
".&	c #9A8B90",
"+&	c #786C6D",
"@&	c #8F8485",
"#&	c #807579",
"$&	c #807577",
"%&	c #7C7173",
"&&	c #756669",
"*&	c #786A6B",
"=&	c #847576",
"-&	c #7A6A6B",
";&	c #7A6B6B",
">&	c #756868",
",&	c #70676A",
"'&	c #887F82",
")&	c #A4A0A1",
"!&	c #CCCACE",
"~&	c #C3BEC4",
"{&	c #BEB4BA",
"]&	c #A1949B",
"^&	c #AA9BA1",
"/&	c #827279",
"(&	c #AC9DA3",
"_&	c #8F8285",
":&	c #93868A",
"<&	c #7D7175",
"[&	c #7D6E70",
"}&	c #817373",
"|&	c #857676",
"1&	c #726262",
"2&	c #847373",
"3&	c #867878",
"4&	c #71686B",
"5&	c #766D70",
"6&	c #A09A9C",
"7&	c #A5A1A2",
"8&	c #C4C2C5",
"9&	c #B4AEB2",
"0&	c #A69CA1",
"a&	c #90838A",
"b&	c #9A8991",
"c&	c #998890",
"d&	c #918088",
"e&	c #AFA0A7",
"f&	c #9D8E95",
"g&	c #928688",
"h&	c #96898C",
"i&	c #807271",
"j&	c #928383",
"k&	c #7B6B6B",
"l&	c #8C7C7C",
"m&	c #807273",
"n&	c #6C6366",
"o&	c #9B9597",
"p&	c #9F9C9D",
"q&	c #C4C2C3",
"r&	c #A39FA0",
"s&	c #958B8F",
"t&	c #A2959C",
"u&	c #988990",
"v&	c #A19098",
"w&	c #928189",
"x&	c #B8A7AF",
"y&	c #9F9097",
"z&	c #928588",
"A&	c #928689",
"B&	c #9A8B8E",
"C&	c #8F8083",
"D&	c #97888C",
"E&	c #AC9E9E",
"F&	c #827273",
"G&	c #8F7E7F",
"H&	c #867778",
"I&	c #7B7275",
"J&	c #A8A2A4",
"K&	c #ABA9AA",
"L&	c #9A9597",
"M&	c #A69DA0",
"N&	c #8B7D82",
"O&	c #7F6D73",
"P&	c #AA979D",
"Q&	c #9D8B91",
"R&	c #A6969C",
"S&	c #AD9EA3",
"T&	c #A2969A",
"U&	c #A89DA1",
"V&	c #9F9397",
"W&	c #786A6F",
"X&	c #88787E",
"Y&	c #7D6F73",
"Z&	c #857A7E",
"`&	c #908589",
" *	c #7B7376",
".*	c #888485",
"+*	c #847D7F",
"@*	c #9B9094",
"#*	c #918589",
"$*	c #7C6C71",
"%*	c #928187",
"&*	c #98868C",
"**	c #94848A",
"=*	c #A4979B",
"-*	c #9A8E92",
";*	c #83787C",
">*	c #91868A",
",*	c #897E82",
"'*	c #75676C",
")*	c #88787D",
"!*	c #8E7F84",
"~*	c #7A6F73",
"{*	c #80777A",
"]*	c #BBB2B5",
"^*	c #888284",
"/*	c #7A7073",
"(*	c #7C7075",
"_*	c #A09397",
":*	c #928287",
"<*	c #837378",
"[*	c #84757A",
"}*	c #8F8286",
"|*	c #887D81",
"1*	c #7B7174",
"2*	c #857B7F",
"3*	c #867A7E",
"4*	c #897C80",
"5*	c #7F7679",
"6*	c #ABA2A5",
"7*	c #ECEBEB",
"8*	c #E7E1E3",
"9*	c #807679",
"0*	c #75696D",
"a*	c #85797D",
"b*	c #7D7376",
"c*	c #766E71",
"d*	c #787072",
"e*	c #867C80",
"f*	c #D7D1D3",
"g*	c #AAA4A6",
"h*	c #90878A",
"i*	c #6A5F63",
"j*	c #685C60",
"k*	c #6C6467",
"l*	c #746E70",
"m*	c #716D6E",
"n*	c #7D7779",
"o*	c #968C90",
"p*	c #8C8185",
"q*	c #DDD2D6",
"r*	c #ADA9AA",
"s*	c #AA9FA3",
"t*	c #CBC8C9",
"u*	c #ACA3A6",
"v*	c #A2989C",
"w*	c #D6CDD0",
"x*	c #A6A3A4",
"y*	c #ACA9AA",
"z*	c #C6C4C5",
"A*	c #CCCACB",
"B*	c #BDB8B9",
"C*	c #938B8E",
"                                            . + @ #                                             ",
"                                          $ % & * =                                             ",
"                                  -       ; > , ' )                                             ",
"                                      ! ~ { ] ^ / ( _ : <                                       ",
"                                [ } | 1 2 3 4 5 6 7 8 9 0 a b c                                 ",
"                              d e f g h i j k k l m n o p q r s                                 ",
"                            t u v w x y z A B C D E F m G H I J K L                             ",
"                          M N O P P Q R S T U V W X Y Z `  ...+.@.#.                            ",
"                          $.%.&.*.=.-.;.>.,.'.).!.~.{.].^./.(._.:.<.[.                          ",
"                          }.|.1.2.3.4.5.6.      7.8.9.0.a.b.c.d.e.m f.                          ",
"                          g.h.i.j.j.k.l.m.      n.o.k.p.q.r.s.t.u.v.w.                          ",
"                          x.y.z.A.B.C.D.E.F.  G.H.I.k.9.J.K.L.M.N.O.P.                          ",
"                          Q.R.S.T.9.U.V.W.X.Y.Z.`. +.+j.++@+#+$+%+&+*+                          ",
"                          =+-+;+>+,+'+)+!+~+{+]+^+/+(+_+:+o <+[+}+|+1+                          ",
"                          2+3+4+5+6+7+6+8+9+0+0+a+b+c+d+e+f+g+h+i+j+k+                          ",
"                          l+m+n+o+p+q+r+s+t+s+u+v+o e+w+w+x+y+z+A+B+C+                          ",
"                          D+E+F+G+H+I+J+K+L+M+u+f+e+P N+N+O+P+Q+R+S+T+                          ",
"                          U+V+W+X+Y+Z+`+ @.@P++@@@#@$@#@%@&@*@=@-@;@>@                          ",
"                          ,@'@)@!@~@{@]@^@.@/@$@(@O+#@_@:@<@P+[@}@|@1@                          ",
"                          2@3@4@5@6@7@8@9@0@+@+@a@f+b@O+_@#@@@c@d@e@T+                          ",
"                          f@g@h@i@j@k@l@m@n@o@o v+p@q@r@N+_@s@t@u@v@w@                          ",
"                          x@y@z@A@B@C@D@x+P o@E@v+p@F@G@o@E@b@H@I@J@K@                          ",
"                          L@M@N@O@P@Q@I R@R@+@(@S@f+E@w T@E@U@V@W@X@>@                          ",
"                          Y@Z@`@ #.#+#@#R ##x+P r@o@x $#u+u+%#&#*#=#-#                          ",
"                          ;#>#,#'#)#!#~#{#]#^#^#/#(#_#:#<#[#}#|#1#2#3#                          ",
"                          4#5#6#7#8#9#0#a#b#c#d#e#f#g#h#i#j#k#l#m#n#o#                          ",
"                          p#q#r#7#8#s#t#u#v#w#x#y#z#A#B#C#D#7@l#E#F#G#                          ",
"                          H#I#J#K#L#M#N#O#O#P#Q#R#S#T#U#V#W#X#Y#Z#`# $                          ",
"                          .$+$@$#$$$%$&$*$=$-$;$>$,$'$)$!$~${$]$,#^$/$                          ",
"                          ($_$:$<$[$}$|$1$2$3$4$5$6$7$8$3$9$0$a$b$c$d$                          ",
"                          e$f$g$h$[$i$j$k$l$m$n$o$p$q$r$s$t$u$v$w$x$y$                          ",
"                          z$A$B$C$K#D$E$F$G$C$H$#$I$J$K$L$M$N$O$P$Q$R$                          ",
"                          S$T$U$V$W$X$Y$Z$`$ %.%7#+%@%#%$%%%&%*%=%-%;%                          ",
"                          >%,%'%)%!%~%{%]%^%/%(%_%:%<%[%}%w |%1%2%P.3%                          ",
"                          4%5%6%7%8%9%0%a%b%c%d%e%) f%w g%h%e+*%*%i%j%                          ",
"                          k%l%m%n%o%p%q%r%s%t%k#u%v%$@w%x%y%S@z%A%B%C%                          ",
"                          D%E%F%G%H%I%J%K%L%M%N%O%$#P%Q%R%S%T%U%V%W%3%                          ",
"                          X%Y%Z%`% &.&a@+&@&#&$&%&&&*&=&-&;&>&,&'&W%)&                          ",
"                          !&~&{&]&^&/&(&_&:&<&$@(@[&}&|&1&2&3&4&5&6&7&                          ",
"                          8&9&0&a&b&c&d&e&f&w+g&h&i&3&j&k&l&m&n&,&o&p&                          ",
"                          q&r&s&t&u&v&w&x&y&z&A&B&C&D&E&F&G&H&I&I&U$J&                          ",
"                            K&L&M&i@N&O&P&Q&R&S&T&N%U&V&W&X&Y&Z&`& *                            ",
"                              .*+*@*#*$*%*&***=*-*;*>*,*'*)*!*~*{*]*                            ",
"                                ^*/*(*_*:*<*[*}*|*1*O 2*3*4*#&5*6*                              ",
"                              7*8*= 9*;*0*g+g+a*b*c*%.d*% 0*e*f*                                ",
"                                    g*h*O i*j*v#k*l*m*n*o*p*q*                                  ",
"                                    7&r*    s*    S$t*  u*v*w*                                  ",
"                                    x*y*    M&    z*A*  B*C*f*                                  "};
